{"title":"Battleground 2012 DVDRip XviD-SPRiNTER","uid":6894455,"size":746270316,"categoryP":"video","categoryS":"movies","magnet":"?xt=urn:btih:54689b472eeb8848e100420a44114cfde71f383e&amp;dn=Battleground+2012+DVDRip+XviD-SPRiNTER&amp;tr=udp%3A%2F%2Ftracker.openbittorrent.com%3A80&amp;tr=udp%3A%2F%2Fopen.demonii.com%3A1337&amp;tr=udp%3A%2F%2Ftracker.coppersurfer.tk%3A6969&amp;tr=udp%3A%2F%2Fexodus.desync.com%3A6969","seeders":0,"leechers":0,"uploader":"neon","files":-1,"time":1324142791,"description":"SPRiNTER proudly presents\n\nBattleground.2012.DVDRip.XviD-SPRiNTER\n\nDate: 2011.12\n &lt;a href=&quot;\nhttp://www.imdb.com/title/tt1754506/&quot; rel=&quot;nofollow&quot; target=&quot;_NEW&quot;&gt;\nhttp://www.imdb.com/title/tt1754506/&lt;/a&gt;\n\nSix ruthless bank robbers encounter someone far worse. Six bank robbers become stranded in a off the grid forest when their vehicle goes missing during the planning of their escape from the police\n\nDetails\n\nFormat: AVI\nFormat/Info: Audio Video Interleave\nFile size: 701 MiB\nDuration: 1h 25mn\nOverall bit rate mode: Variable\nOverall bit rate: 1 147 Kbps\nWriting application: VirtualDubMod 1.5.10.2 (build 2540/release)\nWriting library: VirtualDubMod build 2540/release\n\nVideo\nID: 0\nFormat: MPEG-4 Visual\nFormat profile: Advanced Simple@L5\nFormat settings, BVOP: 2\nFormat settings, QPel: No\nFormat settings, GMC: No warppoints\nFormat settings, Matrix: Default (H.263)\nCodec ID: XVID\nCodec ID/Hint: XviD\nDuration: 1h 25mn\nBit rate: 995 Kbps\nWidth: 608 pixels\nHeight: 256 pixels\nDisplay aspect ratio: 2.40:1\nFrame rate: 25.000 fps\nColor space: YUV\nChroma subsampling: 4:2:0\nBit depth: 8 bits\nScan type: Progressive\nCompression mode: Lossy\nBits/(Pixel*Frame): 0.256\nStream size: 608 MiB (87%)\nWriting library: XviD 61\n\nAudio\nID: 1\nFormat: MPEG Audio\nFormat version: Version 1\nFormat profile: Layer 3\nMode: Joint stereo\nCodec ID: 55\nCodec ID/Hint: MP3\nDuration: 1h 25mn\nBit rate mode: Variable\nBit rate: 140 Kbps\nMinimum bit rate: 128 Kbps\nChannel(s): 2 channels\nSampling rate: 48.0 KHz\nCompression mode: Lossy\nStream size: 85.3 MiB (12%)\nAlignment: Aligned on interleaves\nInterleave, duration: 24 ms (0.60 video frame)\nInterleave, preload duration: 461 ms\nWriting library: LAME3.95\nEncoding settings: -m j -V 4 -q 3 -lowpass 18 --vbr-old -b 128\n\n","torrent":{"xt":"urn:btih:54689b472eeb8848e100420a44114cfde71f383e","amp;dn":"Battleground+2012+DVDRip+XviD-SPRiNTER","amp;tr":["udp%3A%2F%2Ftracker.openbittorrent.com%3A80","udp%3A%2F%2Fopen.demonii.com%3A1337","udp%3A%2F%2Ftracker.coppersurfer.tk%3A6969","udp%3A%2F%2Fexodus.desync.com%3A6969"],"infoHash":"54689b472eeb8848e100420a44114cfde71f383e","infoHashBuffer":{"type":"Buffer","data":[84,104,155,71,46,235,136,72,225,0,66,10,68,17,76,253,231,31,56,62]},"announce":[],"urlList":[]}}